<?xml version="1.0" encoding="UTF-8" standalone="no"?>
<!DOCTYPE svg PUBLIC "-//W3C//DTD SVG 1.1//EN" "http://www.w3.org/Graphics/SVG/1.1/DTD/svg11.dtd">
<svg width="100%" height="100%" viewBox="0 0 60 60" version="1.1" xmlns="http://www.w3.org/2000/svg" xmlns:xlink="http://www.w3.org/1999/xlink" xml:space="preserve" xmlns:serif="http://www.serif.com/" style="fill-rule:evenodd;clip-rule:evenodd;stroke-linejoin:round;stroke-miterlimit:2;">
    <g transform="matrix(1,0,0,1,-510,-510)">
        <g id="Star-Icon" serif:id="Star Icon" transform="matrix(0.313643,0,0,0.327828,370.633,365.756)">
            <path d="M529.317,448.072C530.673,443.296 535.035,440 540,440C544.965,440 549.327,443.296 550.683,448.072L566.45,503.594L624.127,501.432C629.089,501.246 633.571,504.376 635.106,509.098C636.64,513.82 634.853,518.987 630.73,521.753L582.798,553.906L602.677,608.092C604.387,612.753 602.795,617.983 598.779,620.902C594.762,623.82 589.296,623.718 585.391,620.651L540,585L494.609,620.651C490.704,623.718 485.238,623.82 481.221,620.902C477.205,617.983 475.613,612.753 477.323,608.092L497.202,553.906L449.27,521.753C445.147,518.987 443.36,513.82 444.894,509.098C446.429,504.376 450.911,501.246 455.873,501.432L513.55,503.594L529.317,448.072Z" style="fill:rgb(235,235,235);"/>
        </g>
    </g>
</svg>
