<?xml version="1.0" encoding="UTF-8" standalone="no"?>
<!DOCTYPE svg PUBLIC "-//W3C//DTD SVG 1.1//EN" "http://www.w3.org/Graphics/SVG/1.1/DTD/svg11.dtd">
<svg width="100%" height="100%" viewBox="0 0 1080 460" version="1.1" xmlns="http://www.w3.org/2000/svg" xmlns:xlink="http://www.w3.org/1999/xlink" xml:space="preserve" xmlns:serif="http://www.serif.com/" style="fill-rule:evenodd;clip-rule:evenodd;stroke-linejoin:round;stroke-miterlimit:2;">
    <g transform="matrix(1,0,0,1,0,-310)">
        <g transform="matrix(1.02204,0,0,1,-18.642,2.5)">
            <g transform="matrix(281.762,0,0,249.688,0.207224,505.003)">
                <path d="M0.45,0.01C0.379,0.01 0.314,-0.008 0.255,-0.043C0.196,-0.078 0.149,-0.127 0.115,-0.188C0.081,-0.249 0.064,-0.317 0.064,-0.391C0.064,-0.464 0.081,-0.532 0.115,-0.593C0.149,-0.654 0.196,-0.702 0.255,-0.738C0.314,-0.773 0.379,-0.791 0.45,-0.791C0.501,-0.791 0.545,-0.784 0.582,-0.771C0.619,-0.758 0.656,-0.736 0.694,-0.705C0.702,-0.699 0.707,-0.693 0.71,-0.687C0.713,-0.68 0.714,-0.673 0.714,-0.664C0.714,-0.651 0.709,-0.64 0.7,-0.631C0.69,-0.622 0.679,-0.618 0.666,-0.618C0.653,-0.618 0.642,-0.622 0.631,-0.631C0.604,-0.654 0.577,-0.671 0.551,-0.682C0.525,-0.692 0.491,-0.697 0.45,-0.697C0.398,-0.697 0.35,-0.683 0.307,-0.656C0.263,-0.629 0.228,-0.592 0.203,-0.545C0.177,-0.498 0.164,-0.446 0.164,-0.391C0.164,-0.335 0.177,-0.284 0.203,-0.237C0.228,-0.19 0.263,-0.153 0.307,-0.126C0.35,-0.099 0.398,-0.085 0.45,-0.085C0.514,-0.085 0.575,-0.107 0.634,-0.151C0.645,-0.159 0.656,-0.163 0.667,-0.163C0.68,-0.163 0.69,-0.159 0.699,-0.15C0.707,-0.141 0.711,-0.129 0.711,-0.114C0.711,-0.1 0.706,-0.088 0.695,-0.077C0.623,-0.019 0.541,0.01 0.45,0.01Z" style="fill:rgb(50,219,240);fill-rule:nonzero;"/>
            </g>
            <g transform="matrix(281.762,0,0,249.688,219.136,505.003)">
                <path d="M0.461,0.01C0.384,0.01 0.315,-0.007 0.255,-0.041C0.194,-0.075 0.147,-0.123 0.114,-0.184C0.081,-0.245 0.064,-0.314 0.064,-0.391C0.064,-0.468 0.081,-0.537 0.114,-0.598C0.147,-0.659 0.194,-0.706 0.255,-0.74C0.315,-0.774 0.384,-0.791 0.461,-0.791C0.538,-0.791 0.606,-0.774 0.667,-0.74C0.727,-0.706 0.774,-0.659 0.808,-0.598C0.841,-0.537 0.858,-0.468 0.858,-0.391C0.858,-0.314 0.841,-0.245 0.808,-0.184C0.774,-0.123 0.727,-0.075 0.667,-0.041C0.607,-0.007 0.538,0.01 0.461,0.01ZM0.461,-0.084C0.518,-0.084 0.569,-0.098 0.614,-0.125C0.659,-0.152 0.695,-0.188 0.72,-0.235C0.745,-0.282 0.758,-0.334 0.758,-0.391C0.758,-0.448 0.745,-0.5 0.72,-0.547C0.695,-0.594 0.66,-0.63 0.615,-0.657C0.57,-0.684 0.518,-0.697 0.461,-0.697C0.404,-0.697 0.353,-0.684 0.308,-0.657C0.263,-0.63 0.227,-0.594 0.202,-0.547C0.177,-0.5 0.164,-0.448 0.164,-0.391C0.164,-0.334 0.177,-0.282 0.202,-0.235C0.227,-0.188 0.263,-0.152 0.308,-0.125C0.353,-0.098 0.404,-0.084 0.461,-0.084Z" style="fill:rgb(255,1,129);fill-rule:nonzero;"/>
            </g>
            <g transform="matrix(281.762,0,0,249.688,478.639,505.003)">
                <path d="M0.151,-0C0.136,-0 0.124,-0.005 0.115,-0.015C0.105,-0.025 0.1,-0.037 0.1,-0.052L0.1,-0.729C0.1,-0.744 0.105,-0.756 0.115,-0.766C0.125,-0.776 0.137,-0.781 0.151,-0.781C0.166,-0.781 0.178,-0.776 0.188,-0.766C0.198,-0.756 0.203,-0.744 0.203,-0.729L0.203,-0.104L0.565,-0.104C0.58,-0.104 0.592,-0.099 0.602,-0.089C0.612,-0.079 0.617,-0.067 0.617,-0.052C0.617,-0.037 0.612,-0.025 0.602,-0.015C0.592,-0.005 0.58,-0 0.565,-0L0.151,-0Z" style="fill:rgb(144,13,255);fill-rule:nonzero;"/>
            </g>
            <g transform="matrix(281.762,0,0,249.688,641.6,505.003)">
                <path d="M0.461,0.01C0.384,0.01 0.315,-0.007 0.255,-0.041C0.194,-0.075 0.147,-0.123 0.114,-0.184C0.081,-0.245 0.064,-0.314 0.064,-0.391C0.064,-0.468 0.081,-0.537 0.114,-0.598C0.147,-0.659 0.194,-0.706 0.255,-0.74C0.315,-0.774 0.384,-0.791 0.461,-0.791C0.538,-0.791 0.606,-0.774 0.667,-0.74C0.727,-0.706 0.774,-0.659 0.808,-0.598C0.841,-0.537 0.858,-0.468 0.858,-0.391C0.858,-0.314 0.841,-0.245 0.808,-0.184C0.774,-0.123 0.727,-0.075 0.667,-0.041C0.607,-0.007 0.538,0.01 0.461,0.01ZM0.461,-0.084C0.518,-0.084 0.569,-0.098 0.614,-0.125C0.659,-0.152 0.695,-0.188 0.72,-0.235C0.745,-0.282 0.758,-0.334 0.758,-0.391C0.758,-0.448 0.745,-0.5 0.72,-0.547C0.695,-0.594 0.66,-0.63 0.615,-0.657C0.57,-0.684 0.518,-0.697 0.461,-0.697C0.404,-0.697 0.353,-0.684 0.308,-0.657C0.263,-0.63 0.227,-0.594 0.202,-0.547C0.177,-0.5 0.164,-0.448 0.164,-0.391C0.164,-0.334 0.177,-0.282 0.202,-0.235C0.227,-0.188 0.263,-0.152 0.308,-0.125C0.353,-0.098 0.404,-0.084 0.461,-0.084Z" style="fill:rgb(250,225,0);fill-rule:nonzero;"/>
            </g>
            <g transform="matrix(281.762,0,0,249.688,901.103,505.003)">
                <path d="M0.607,-0.08C0.614,-0.069 0.617,-0.058 0.617,-0.047C0.617,-0.034 0.613,-0.023 0.604,-0.014C0.595,-0.005 0.582,-0 0.567,-0C0.548,-0 0.533,-0.008 0.522,-0.025L0.35,-0.301L0.204,-0.301L0.204,-0.052C0.204,-0.037 0.199,-0.025 0.19,-0.015C0.18,-0.005 0.167,-0 0.152,-0C0.137,-0 0.125,-0.005 0.115,-0.015C0.105,-0.025 0.1,-0.037 0.1,-0.052L0.1,-0.729C0.1,-0.744 0.105,-0.757 0.115,-0.767C0.125,-0.776 0.137,-0.781 0.152,-0.781L0.332,-0.781C0.381,-0.781 0.426,-0.771 0.465,-0.75C0.503,-0.729 0.534,-0.7 0.556,-0.663C0.577,-0.626 0.588,-0.583 0.588,-0.535C0.588,-0.488 0.576,-0.446 0.552,-0.409C0.528,-0.372 0.495,-0.345 0.454,-0.326L0.607,-0.08ZM0.332,-0.397C0.377,-0.397 0.415,-0.41 0.444,-0.436C0.473,-0.461 0.488,-0.494 0.488,-0.535C0.488,-0.579 0.473,-0.615 0.444,-0.643C0.415,-0.671 0.377,-0.685 0.332,-0.685L0.204,-0.685L0.204,-0.397L0.332,-0.397Z" style="fill:rgb(50,219,240);fill-rule:nonzero;"/>
            </g>
            <g transform="matrix(264.648,0,0,249.688,3.15507,765.003)">
                <path d="M0.348,0.01C0.283,0.01 0.225,-0.005 0.172,-0.034C0.118,-0.063 0.082,-0.102 0.062,-0.149C0.059,-0.157 0.057,-0.164 0.057,-0.169C0.057,-0.179 0.061,-0.188 0.068,-0.196C0.075,-0.203 0.085,-0.208 0.098,-0.211C0.1,-0.212 0.103,-0.212 0.108,-0.212C0.119,-0.212 0.129,-0.209 0.139,-0.203C0.148,-0.196 0.155,-0.188 0.16,-0.177C0.172,-0.151 0.196,-0.129 0.231,-0.111C0.266,-0.093 0.305,-0.084 0.348,-0.084C0.398,-0.084 0.44,-0.096 0.475,-0.118C0.51,-0.141 0.527,-0.173 0.527,-0.213C0.527,-0.251 0.512,-0.283 0.483,-0.311C0.454,-0.338 0.409,-0.354 0.349,-0.36C0.266,-0.368 0.201,-0.392 0.154,-0.433C0.107,-0.473 0.083,-0.523 0.083,-0.584C0.083,-0.627 0.095,-0.664 0.119,-0.695C0.144,-0.726 0.177,-0.749 0.22,-0.765C0.262,-0.782 0.309,-0.79 0.362,-0.79C0.419,-0.79 0.468,-0.778 0.507,-0.755C0.546,-0.732 0.58,-0.698 0.607,-0.655C0.615,-0.642 0.619,-0.63 0.619,-0.619C0.619,-0.604 0.612,-0.592 0.599,-0.583C0.592,-0.578 0.583,-0.576 0.573,-0.576C0.563,-0.576 0.554,-0.579 0.545,-0.584C0.536,-0.589 0.53,-0.595 0.525,-0.604C0.507,-0.634 0.485,-0.657 0.458,-0.673C0.431,-0.688 0.396,-0.696 0.355,-0.696C0.304,-0.696 0.263,-0.686 0.232,-0.667C0.201,-0.647 0.185,-0.618 0.185,-0.581C0.185,-0.546 0.199,-0.517 0.227,-0.494C0.255,-0.471 0.305,-0.455 0.377,-0.448C0.457,-0.44 0.519,-0.416 0.563,-0.376C0.607,-0.335 0.629,-0.282 0.629,-0.216C0.629,-0.168 0.616,-0.127 0.59,-0.093C0.564,-0.058 0.53,-0.033 0.487,-0.016C0.444,0.001 0.397,0.01 0.348,0.01Z" style="fill:rgb(255,1,129);fill-rule:nonzero;"/>
            </g>
            <g transform="matrix(264.648,0,0,249.688,174.752,765.003)">
                <path d="M0.887,-0.781C0.9,-0.781 0.91,-0.777 0.917,-0.769C0.924,-0.761 0.927,-0.75 0.927,-0.737C0.927,-0.727 0.926,-0.718 0.923,-0.709L0.722,-0.042C0.717,-0.029 0.711,-0.019 0.702,-0.012C0.693,-0.004 0.682,-0 0.67,-0C0.658,-0 0.647,-0.004 0.638,-0.012C0.629,-0.019 0.622,-0.029 0.618,-0.041L0.469,-0.617L0.318,-0.042C0.313,-0.029 0.307,-0.019 0.298,-0.012C0.289,-0.004 0.278,-0 0.266,-0C0.254,-0 0.243,-0.004 0.234,-0.011C0.225,-0.018 0.218,-0.028 0.214,-0.041L0.013,-0.709C0.01,-0.718 0.009,-0.727 0.009,-0.736C0.009,-0.75 0.013,-0.761 0.021,-0.769C0.028,-0.777 0.039,-0.781 0.052,-0.781C0.064,-0.781 0.075,-0.778 0.084,-0.771C0.093,-0.764 0.099,-0.755 0.103,-0.742L0.267,-0.172L0.418,-0.736C0.421,-0.746 0.427,-0.754 0.436,-0.761C0.445,-0.768 0.456,-0.771 0.468,-0.771C0.479,-0.771 0.49,-0.768 0.499,-0.762C0.508,-0.756 0.514,-0.748 0.517,-0.737L0.67,-0.168L0.836,-0.747C0.839,-0.759 0.845,-0.768 0.854,-0.773C0.862,-0.778 0.873,-0.781 0.887,-0.781Z" style="fill:rgb(144,13,255);fill-rule:nonzero;"/>
            </g>
            <g transform="matrix(264.648,0,0,249.688,422.992,765.003)">
                <path d="M0.152,-0C0.137,-0 0.125,-0.005 0.115,-0.015C0.105,-0.025 0.1,-0.037 0.1,-0.052L0.1,-0.729C0.1,-0.744 0.105,-0.757 0.115,-0.767C0.125,-0.776 0.137,-0.781 0.152,-0.781C0.167,-0.781 0.18,-0.776 0.19,-0.767C0.199,-0.757 0.204,-0.744 0.204,-0.729L0.204,-0.052C0.204,-0.037 0.199,-0.025 0.19,-0.015C0.18,-0.005 0.167,-0 0.152,-0Z" style="fill:rgb(250,225,0);fill-rule:nonzero;"/>
            </g>
            <g transform="matrix(264.648,0,0,249.688,503.444,765.003)">
                <path d="M0.598,-0.781C0.612,-0.781 0.624,-0.777 0.632,-0.768C0.642,-0.758 0.646,-0.747 0.646,-0.733C0.646,-0.719 0.642,-0.708 0.632,-0.699C0.624,-0.69 0.612,-0.685 0.598,-0.685L0.383,-0.685L0.383,-0.052C0.383,-0.037 0.378,-0.025 0.368,-0.015C0.358,-0.005 0.346,-0 0.331,-0C0.316,-0 0.304,-0.005 0.294,-0.015C0.284,-0.025 0.279,-0.037 0.279,-0.052L0.279,-0.685L0.063,-0.685C0.049,-0.685 0.038,-0.69 0.029,-0.699C0.02,-0.708 0.015,-0.719 0.015,-0.733C0.015,-0.747 0.02,-0.758 0.029,-0.768C0.038,-0.777 0.049,-0.781 0.063,-0.781L0.598,-0.781Z" style="fill:rgb(50,219,240);fill-rule:nonzero;"/>
            </g>
            <g transform="matrix(264.648,0,0,249.688,665.275,765.003)">
                <path d="M0.45,0.01C0.379,0.01 0.314,-0.008 0.255,-0.043C0.196,-0.078 0.149,-0.127 0.115,-0.188C0.081,-0.249 0.064,-0.317 0.064,-0.391C0.064,-0.464 0.081,-0.532 0.115,-0.593C0.149,-0.654 0.196,-0.702 0.255,-0.738C0.314,-0.773 0.379,-0.791 0.45,-0.791C0.501,-0.791 0.545,-0.784 0.582,-0.771C0.619,-0.758 0.656,-0.736 0.694,-0.705C0.702,-0.699 0.707,-0.693 0.71,-0.687C0.713,-0.68 0.714,-0.673 0.714,-0.664C0.714,-0.651 0.709,-0.64 0.7,-0.631C0.69,-0.622 0.679,-0.618 0.666,-0.618C0.653,-0.618 0.642,-0.622 0.631,-0.631C0.604,-0.654 0.577,-0.671 0.551,-0.682C0.525,-0.692 0.491,-0.697 0.45,-0.697C0.398,-0.697 0.35,-0.683 0.307,-0.656C0.263,-0.629 0.228,-0.592 0.203,-0.545C0.177,-0.498 0.164,-0.446 0.164,-0.391C0.164,-0.335 0.177,-0.284 0.203,-0.237C0.228,-0.19 0.263,-0.153 0.307,-0.126C0.35,-0.099 0.398,-0.085 0.45,-0.085C0.514,-0.085 0.575,-0.107 0.634,-0.151C0.645,-0.159 0.656,-0.163 0.667,-0.163C0.68,-0.163 0.69,-0.159 0.699,-0.15C0.707,-0.141 0.711,-0.129 0.711,-0.114C0.711,-0.1 0.706,-0.088 0.695,-0.077C0.623,-0.019 0.541,0.01 0.45,0.01Z" style="fill:rgb(255,1,129);fill-rule:nonzero;"/>
            </g>
            <g transform="matrix(264.648,0,0,249.688,870.907,765.003)">
                <path d="M0.152,-0C0.137,-0 0.125,-0.005 0.115,-0.015C0.105,-0.025 0.1,-0.037 0.1,-0.052L0.1,-0.729C0.1,-0.744 0.105,-0.757 0.115,-0.767C0.125,-0.776 0.137,-0.781 0.152,-0.781C0.167,-0.781 0.18,-0.776 0.19,-0.767C0.199,-0.757 0.204,-0.744 0.204,-0.729L0.204,-0.442L0.668,-0.442L0.668,-0.729C0.668,-0.744 0.673,-0.757 0.683,-0.767C0.693,-0.776 0.705,-0.781 0.72,-0.781C0.735,-0.781 0.747,-0.776 0.756,-0.767C0.766,-0.757 0.771,-0.744 0.771,-0.729L0.771,-0.052C0.771,-0.037 0.766,-0.024 0.756,-0.015C0.747,-0.005 0.735,-0 0.72,-0C0.705,-0 0.693,-0.005 0.683,-0.015C0.673,-0.025 0.668,-0.037 0.668,-0.052L0.668,-0.35L0.204,-0.35L0.204,-0.052C0.204,-0.037 0.199,-0.025 0.19,-0.015C0.18,-0.005 0.167,-0 0.152,-0Z" style="fill:rgb(144,13,255);fill-rule:nonzero;"/>
            </g>
        </g>
    </g>
</svg>
