<?xml version="1.0" encoding="UTF-8" standalone="no"?>
<!DOCTYPE svg PUBLIC "-//W3C//DTD SVG 1.1//EN" "http://www.w3.org/Graphics/SVG/1.1/DTD/svg11.dtd">
<svg width="100%" height="100%" viewBox="0 0 1920 1080" version="1.1" xmlns="http://www.w3.org/2000/svg" xmlns:xlink="http://www.w3.org/1999/xlink" xml:space="preserve" xmlns:serif="http://www.serif.com/" style="fill-rule:evenodd;clip-rule:evenodd;stroke-linejoin:round;stroke-miterlimit:2;">
    <rect id="Artboard1" x="0" y="0" width="1920" height="1080" style="fill:none;"/>
    <clipPath id="_clip1">
        <rect id="Artboard11" serif:id="Artboard1" x="0" y="0" width="1920" height="1080"/>
    </clipPath>
    <g clip-path="url(#_clip1)">
        <rect x="0" y="0" width="1920" height="1080" style="fill:rgb(39,39,39);"/>
        <g>
            <g transform="matrix(0.626462,0.228013,-0.34202,0.939693,184.137,371.095)">
                <path d="M1027,190C1027,148.606 976.59,115 914.5,115C852.41,115 802,148.606 802,190L802,875C802,916.394 852.41,950 914.5,950C976.59,950 1027,916.394 1027,875L1027,190Z" style="fill:rgb(68,68,68);"/>
            </g>
            <g transform="matrix(0.626462,0.228013,-0.34202,0.939693,568.448,371.095)">
                <path d="M1027,190C1027,148.606 976.59,115 914.5,115C852.41,115 802,148.606 802,190L802,875C802,916.394 852.41,950 914.5,950C976.59,950 1027,916.394 1027,875L1027,190Z" style="fill:rgb(68,68,68);"/>
            </g>
            <g transform="matrix(0.626462,0.228013,-0.34202,0.939693,952.76,371.095)">
                <path d="M1027,190C1027,148.606 976.59,115 914.5,115C852.41,115 802,148.606 802,190L802,875C802,916.394 852.41,950 914.5,950C976.59,950 1027,916.394 1027,875L1027,190Z" style="fill:rgb(68,68,68);"/>
            </g>
            <g transform="matrix(0.626462,0.228013,-0.34202,0.939693,1337.07,371.095)">
                <path d="M1027,190C1027,148.606 976.59,115 914.5,115C852.41,115 802,148.606 802,190L802,875C802,916.394 852.41,950 914.5,950C976.59,950 1027,916.394 1027,875L1027,190Z" style="fill:rgb(68,68,68);"/>
            </g>
            <g transform="matrix(0.626462,0.228013,-0.34202,0.939693,-200.174,371.095)">
                <path d="M1027,190C1027,148.606 976.59,115 914.5,115C852.41,115 802,148.606 802,190L802,875C802,916.394 852.41,950 914.5,950C976.59,950 1027,916.394 1027,875L1027,190Z" style="fill:rgb(68,68,68);"/>
            </g>
            <g transform="matrix(0.626462,0.228013,-0.34202,0.939693,184.137,-708.905)">
                <path d="M1027,190C1027,148.606 976.59,115 914.5,115C852.41,115 802,148.606 802,190L802,875C802,916.394 852.41,950 914.5,950C976.59,950 1027,916.394 1027,875L1027,190Z" style="fill:rgb(68,68,68);"/>
            </g>
            <g transform="matrix(0.626462,0.228013,-0.34202,0.939693,568.448,-708.905)">
                <path d="M1027,190C1027,148.606 976.59,115 914.5,115C852.41,115 802,148.606 802,190L802,875C802,916.394 852.41,950 914.5,950C976.59,950 1027,916.394 1027,875L1027,190Z" style="fill:rgb(68,68,68);"/>
            </g>
            <g transform="matrix(0.626462,0.228013,-0.34202,0.939693,952.76,-708.905)">
                <path d="M1027,190C1027,148.606 976.59,115 914.5,115C852.41,115 802,148.606 802,190L802,875C802,916.394 852.41,950 914.5,950C976.59,950 1027,916.394 1027,875L1027,190Z" style="fill:rgb(68,68,68);"/>
            </g>
            <g transform="matrix(0.626462,0.228013,-0.34202,0.939693,1337.07,-708.905)">
                <path d="M1027,190C1027,148.606 976.59,115 914.5,115C852.41,115 802,148.606 802,190L802,875C802,916.394 852.41,950 914.5,950C976.59,950 1027,916.394 1027,875L1027,190Z" style="fill:rgb(68,68,68);"/>
            </g>
            <g transform="matrix(0.626462,0.228013,-0.34202,0.939693,-198.618,-708.905)">
                <path d="M1027,190C1027,148.606 976.59,115 914.5,115C852.41,115 802,148.606 802,190L802,875C802,916.394 852.41,950 914.5,950C976.59,950 1027,916.394 1027,875L1027,190Z" style="fill:rgb(68,68,68);"/>
            </g>
        </g>
    </g>
</svg>
